<?xml version="1.0"?>
<svg version="1.1" xmlns="http://www.w3.org/2000/svg" width="66" height="65" style="border: dashed 2px #aaa"><path fill="#ed2690" d="M15.8935546875,28.92578125q0-0.6884765625,0.03662109375-1.3623046875t0.12451171875-1.3330078125q0.05859375-0.3369140625,0.52001953125-0.4833984375t0.76904296875-0.146484375l0.3515625,0.029296875q0.4248046875,0.05859375,0.85693359375-0.05859375t0.85693359375-0.1171875q0.99609375,0,2.2265625,0.2197265625t2.30712890625,0.7470703125t1.80908203125,1.38427734375t0.732421875,2.11669921875t-0.76171875,2.35107421875t-1.9189453125,1.9189453125t-2.490234375,1.29638671875t-2.4462890625,0.46875q0.1171875,2.8271484375,0.32958984375,5.6103515625t0.72509765625,5.56640625l0.029296875,0.1904296875q0,0.205078125-0.18310546875,0.3369140625t-0.43212890625,0.21240234375t-0.50537109375,0.10986328125t-0.41748046875,0.029296875q-0.3662109375,0-0.88623046875-0.13916015625t-0.63720703125-0.54931640625q-0.3369140625-1.2890625-0.52734375-2.83447265625t-0.2783203125-3.22998046875t-0.12451171875-3.39111328125t-0.03662109375-3.33251953125l0-3.2958984375q0-0.5419921875-0.0146484375-1.1279296875t-0.0146484375-1.1865234375z M18.662109375,26.552734375q0,2.0068359375,0.0439453125,4.00634765625t0.1025390625,4.00634765625q0.8642578125-0.17578125,1.76513671875-0.62255859375t1.6259765625-1.06201171875t1.171875-1.39892578125t0.44677734375-1.64794921875q0-0.7763671875-0.38818359375-1.3916015625t-1.00341796875-1.0546875q-0.6005859375-0.4248046875-1.3623046875-0.6591796875q-0.673828125-0.205078125-1.318359375-0.205078125l-0.1611328125,0z M29.394580078125,47.1630859375q0-0.087890625,0.05859375-0.62255859375t0.15380859375-1.3037109375t0.21240234375-1.6552734375t0.205078125-1.67724609375t0.15380859375-1.3916015625t0.06591796875-0.8056640625q-0.1171875-0.05859375-0.28564453125-0.16845703125t-0.16845703125-0.25634765625q0-0.205078125,0.19775390625-0.32958984375t0.34423828125-0.18310546875q0.05859375-0.7470703125,0.146484375-2.080078125t0.27099609375-2.87841796875t0.5126953125-3.134765625t0.87158203125-2.8857421875t1.3037109375-2.11669921875t1.875-0.8203125t1.845703125,0.703125t1.19384765625,1.8310546875t0.703125,2.5048828125t0.3662109375,2.7392578125t0.15380859375,2.548828125t0.05859375,1.904296875q0.029296875,0.4541015625,0.2197265625,0.60791015625t0.41748046875,0.21240234375t0.41015625,0.1318359375t0.18310546875,0.3662109375q0,0.3369140625-0.41015625,0.46875t-0.64453125,0.1611328125q0.146484375,1.8310546875,0.40283203125,3.603515625t0.68115234375,3.57421875q0.05859375,0.3369140625,0.1611328125,0.68115234375t0.1025390625,0.66650390625q0,0.234375-0.1611328125,0.38818359375t-0.41748046875,0.24169921875t-0.5126953125,0.1171875t-0.43212890625,0.029296875q-0.6591796875,0-1.11328125-0.2490234375t-0.6005859375-0.9521484375q-0.3955078125-1.8896484375-0.7763671875-3.9697265625q-0.322265625-1.8017578125-0.322265625-3.5009765625q0-0.263671875,0.0146484375-0.52734375q-1.23046875,0-2.4755859375,0.05859375t-2.3876953125,0.439453125q-0.029296875,0.3955078125-0.146484375,1.494140625t-0.263671875,2.3583984375t-0.30029296875,2.40966796875t-0.18310546875,1.63330078125q-0.029296875,0.205078125-0.30029296875,0.38818359375t-0.5859375,0.19775390625t-0.556640625-0.19775390625t-0.24169921875-0.75439453125z M32.133837890625,38.2861328125q1.142578125-0.263671875,2.29248046875-0.3076171875t2.32177734375-0.1025390625q-0.05859375-0.3662109375-0.029296875-0.75439453125t0.029296875-0.78369140625q0-0.8642578125-0.0439453125-2.0068359375t-0.1318359375-2.314453125t-0.22705078125-2.30712890625t-0.31494140625-2.021484375t-0.37353515625-1.41357421875t-0.43212890625-0.52734375q-0.4541015625,0.029296875-0.85693359375,0.78369140625t-0.732421875,1.9189453125t-0.6005859375,2.607421875t-0.4541015625,2.81982421875t-0.30029296875,2.5634765625t-0.146484375,1.845703125z M44.18466796875,45.0390625q0.087890625-2.373046875,0.15380859375-4.86328125t0.12451171875-4.91455078125t0.087890625-4.70947265625t0.029296875-4.2626953125q0.029296875-0.3955078125,0.6884765625-0.6298828125t1.57470703125-0.34423828125t1.93359375-0.13916015625t1.80908203125-0.029296875q0.17578125,0,0.732421875-0.0146484375l0.2783203125,0q0.4248046875,0,0.8935546875,0.029296875q0.615234375,0.0439453125,1.07666015625,0.1904296875t0.46142578125,0.4248046875q0,0.205078125-0.1611328125,0.32958984375t-0.37353515625,0.18310546875t-0.439453125,0.0732421875t-0.31494140625,0.0146484375q-1.376953125,0-2.724609375-0.0439453125q-0.3662109375-0.0146484375-0.7470703125-0.0146484375q-0.99609375,0-2.021484375,0.087890625q0.05859375,0.17578125,0.09521484375,1.06201171875t0.03662109375,1.99951171875t-0.0146484375,2.17529296875t0,1.63330078125l0,3.80859375q0.4541015625-0.029296875,0.8935546875-0.029296875l0.87890625,0l0.5859375-0.029296875q0.29296875-0.0146484375,0.615234375-0.0146484375q0.3369140625,0,0.6884765625,0.0146484375q0.703125,0.029296875,1.28173828125,0.16845703125t0.57861328125,0.49072265625q0,0.263671875-0.2197265625,0.38818359375t-0.49072265625,0.18310546875t-0.5126953125,0.05859375l-0.27099609375,0q-0.8349609375,0-1.73583984375-0.05859375t-1.67724609375-0.05859375q-0.146484375,0.05859375-0.31494140625,0.0439453125t-0.30029296875-0.0146484375q0,2.197265625-0.0439453125,4.37255859375t-0.1025390625,4.32861328125q0,0.4248046875-0.53466796875,0.556640625t-1.01806640625,0.1318359375q-0.5419921875,0-0.85693359375-0.1318359375t-0.44677734375-0.43212890625t-0.1611328125-0.79833984375q-0.0146484375-0.2783203125-0.029296875-0.615234375q0-0.2783203125,0.0146484375-0.6005859375z"/><path fill="#" d=""/></svg>
