<?xml version="1.0" standalone="no"?>
<!DOCTYPE svg PUBLIC "-//W3C//DTD SVG 20010904//EN"
 "http://www.w3.org/TR/2001/REC-SVG-20010904/DTD/svg10.dtd">
<svg version="1.0" xmlns="http://www.w3.org/2000/svg"
 width="256.000000pt" height="194.000000pt" viewBox="0 0 256.000000 194.000000"
 preserveAspectRatio="xMidYMid meet">

<g transform="translate(0.000000,194.000000) scale(0.100000,-0.100000)"
fill="#000000" stroke="none">
<path d="M476 1444 c-12 -12 -16 -36 -16 -100 0 -78 -1 -84 -21 -84 -11 0 -29
-5 -40 -10 -26 -14 -26 -66 0 -80 11 -6 90 -10 185 -10 159 0 165 1 180 22 20
29 20 34 -4 58 -17 17 -33 20 -110 20 l-90 0 0 50 0 50 460 0 460 0 0 -320 0
-320 -220 0 -220 0 -20 39 c-65 128 -247 128 -319 0 -22 -39 -23 -39 -82 -39
l-60 0 3 53 c3 47 5 52 28 55 34 5 50 20 50 46 0 43 -15 46 -196 46 -144 0
-175 -3 -188 -16 -19 -19 -20 -35 -3 -57 9 -13 32 -17 107 -19 l95 -3 5 -90
c5 -83 7 -90 30 -102 14 -7 62 -13 113 -13 69 0 87 -3 87 -15 0 -8 17 -32 38
-53 70 -74 175 -81 250 -16 23 19 44 45 48 57 4 12 12 25 18 29 6 4 142 7 303
8 225 0 294 -2 303 -12 5 -7 20 -28 33 -47 72 -111 243 -103 311 14 l21 36
114 4 c65 2 119 9 127 16 19 16 20 337 1 362 -8 12 -47 22 -132 34 l-120 18
-61 125 c-40 83 -69 129 -85 138 -16 9 -61 12 -139 11 -63 -1 -121 -1 -127 0
-9 1 -13 19 -13 56 0 43 -4 56 -19 65 -13 6 -202 10 -545 10 -464 0 -526 -2
-540 -16z m1396 -344 c69 -147 55 -136 201 -154 l92 -11 3 -108 3 -107 -80 0
c-71 0 -80 2 -86 20 -10 31 -54 79 -88 97 -40 20 -124 20 -162 0 -32 -16 -61
-46 -88 -89 -14 -22 -25 -28 -52 -28 l-35 0 0 255 0 255 116 0 115 0 61 -130z
m-977 -350 c34 -13 59 -69 46 -104 -33 -85 -161 -67 -161 23 0 40 13 62 45 79
25 14 37 14 70 2z m1003 -26 c26 -29 28 -54 7 -93 -38 -75 -155 -43 -155 43 0
26 7 40 32 61 38 32 81 29 116 -11z"/>
<path d="M320 1071 c-16 -30 -12 -48 12 -65 18 -13 54 -16 180 -16 145 0 160
2 178 20 25 25 25 42 2 63 -16 14 -45 17 -190 17 -159 0 -172 -1 -182 -19z"/>
</g>
</svg>
